<?xml version="1.0" standalone="no"?>
<!DOCTYPE svg PUBLIC "-//W3C//DTD SVG 1.1//EN" "http://www.w3.org/Graphics/SVG/1.1/DTD/svg11.dtd" >
<svg xmlns="http://www.w3.org/2000/svg" xmlns:xlink="http://www.w3.org/1999/xlink" version="1.1">
<metadata>
Created by FontForge 20161116 at Mon Apr  3 23:00:32 2017
 By Jimmy Wärting
Copyright \(c\) 2017 by Cartel Deux. All rights reserved.
</metadata>
<defs>
<font id="MaranaBlack" horiz-adv-x="763" >
  <font-face 
    font-family="Marana Black"
    font-weight="250"
    font-stretch="normal"
    units-per-em="1000"
    panose-1="0 0 0 0 0 0 0 0 0 0"
    ascent="750"
    descent="-250"
    x-height="751"
    cap-height="752"
    bbox="0 -359 1166 978"
    underline-thickness="50"
    underline-position="-100"
    stemh="199"
    stemv="198"
    unicode-range="U+000D-2122"
  />
<missing-glyph horiz-adv-x="300" 
 />
    <glyph glyph-name=".notdef" horiz-adv-x="300" 
 />
    <glyph glyph-name="H" unicode="H" horiz-adv-x="764" 
d="M506 470v283h198v-755h-198v283h-248v-283h-198v755h198v-283h248z" />
    <glyph glyph-name="L" unicode="L" horiz-adv-x="662" 
d="M258 196h344v-199h-542v755h198v-556z" />
    <glyph glyph-name="C" unicode="C" horiz-adv-x="764" 
d="M468 753c130 0 236 -106 236 -236v-59h-195v5c0 51 -42 93 -93 93h-68c-52 0 -94 -42 -94 -93v-171c0 -51 42 -93 94 -93h68c51 0 93 42 93 96h195v-60c0 -130 -106 -235 -236 -235h-172c-130 0 -236 105 -236 235v282c0 130 106 236 236 236h172z" />
    <glyph glyph-name="I" unicode="I" horiz-adv-x="318" 
d="M60 -3v755h198v-755h-198z" />
    <glyph glyph-name="M" unicode="M" horiz-adv-x="991" 
d="M675 752h198l58 -753h-197l-22 280l-107 -280h-220l-106 279l-21 -279h-198l58 753h198l179 -473z" />
    <glyph glyph-name="Q" unicode="Q" 
d="M703 235c0 -75 -35 -142 -90 -185l90 -160h-228l-62 109h-117c-131 0 -236 106 -236 236v281c0 130 105 236 236 236h172c130 0 235 -106 235 -236v-281zM254 292c0 -52 42 -94 94 -94h68c51 0 93 42 93 94v170c0 51 -42 93 -93 93h-68c-52 0 -94 -42 -94 -93v-170z" />
    <glyph glyph-name="slash" unicode="/" horiz-adv-x="588" 
d="M60 -1l251 754h217l-251 -754h-217z" />
    <glyph glyph-name="ampersand" unicode="&#x26;" horiz-adv-x="723" 
d="M663 412v-139h-96v-57c0 -117 -101 -216 -209 -216h-106c-122 12 -192 96 -192 228c0 76 24 148 41 150c-20 26 -41 54 -41 147c0 133 70 216 192 228h106c122 0 209 -105 209 -215v-55c-166 0 -166 1 -166 2c0 10 -2 53 -44 78c-14 8 -30 10 -45 10c-16 0 -30 -2 -38 -5
c-30 -10 -45 -33 -45 -59c0 -30 21 -61 51 -61h71v-143h-71c-30 0 -51 -31 -51 -63c0 -23 15 -47 45 -57c9 -3 5 -6 30 -6c75 0 92 53 96 78v155h263z" />
    <glyph glyph-name="V" unicode="V" horiz-adv-x="839" 
d="M779 752l-251 -753h-217l-251 753h217l142 -428l143 428h217z" />
    <glyph glyph-name="U" unicode="U" 
d="M509 289v462h194v-518c0 -131 -105 -236 -235 -236h-172c-131 0 -236 105 -236 236v518h194v-462c0 -51 42 -93 94 -93h68c51 0 93 42 93 93z" />
    <glyph glyph-name="P" unicode="P" horiz-adv-x="704" 
d="M443 753c111 0 201 -90 201 -201v-112c0 -111 -90 -201 -201 -201h-185v-240h-198v754h383zM474 484v24c0 44 -35 80 -79 80h-137v-183h137c44 0 79 35 79 79z" />
    <glyph glyph-name="O" unicode="O" 
d="M468 752c130 0 235 -106 235 -236v-281c0 -130 -105 -236 -235 -236h-172c-131 0 -236 106 -236 236v281c0 130 105 236 236 236h172zM509 292v170c0 51 -42 93 -93 93h-68c-52 0 -94 -42 -94 -93v-170c0 -52 42 -94 94 -94h68c51 0 93 42 93 94z" />
    <glyph glyph-name="S" unicode="S" horiz-adv-x="662" 
d="M428 438c113 -42 174 -121 174 -238c0 -48 -22 -98 -59 -137c-40 -42 -91 -65 -143 -65h-138c-112 0 -202 91 -202 202v60h181v-16c0 -35 28 -63 62 -63h55c31 0 44 25 44 48c0 41 -89 67 -149 84c-46 13 -89 28 -128 60s-65 91 -65 147v6c2 57 19 121 59 163
c39 41 90 64 143 64h138c111 0 202 -91 202 -202v-60h-181v16c0 35 -28 63 -63 63h-55c-30 0 -44 -24 -44 -47c0 -24 23 -50 80 -62c40 -9 71 -17 89 -23z" />
    <glyph glyph-name="R" unicode="R" horiz-adv-x="751" 
d="M644 438c0 -76 -42 -141 -104 -176l151 -265h-217l-136 240h-80v-240h-198v754h383c111 0 201 -90 201 -201v-112zM258 586v-183h137c44 0 79 35 79 79v24c0 44 -35 80 -79 80h-137z" />
    <glyph glyph-name="N" unicode="N" 
d="M505 348v404h198v-754h-217l-228 404v-404h-198v754h217z" />
    <glyph glyph-name="T" unicode="T" 
d="M60 752h643v-198h-222v-556h-198v556h-223v198z" />
    <glyph glyph-name="Z" unicode="Z" horiz-adv-x="662" 
d="M292 195h310v-198h-542v197l275 359h-275v198h531v-199z" />
    <glyph glyph-name="X" unicode="X" 
d="M486 753h217l-213 -377l213 -377h-217l-104 185l-105 -185h-217l213 377l-213 377h217l105 -185z" />
    <glyph glyph-name="W" unicode="W" horiz-adv-x="1226" 
d="M805 321l144 431h217l-253 -754h-217l-84 253l-84 -253h-217l-251 754h217l143 -428l142 428h100z" />
    <glyph glyph-name="Y" unicode="Y" horiz-adv-x="830" 
d="M554 751h216l-256 -453v-301h-198v301l-256 453h217l138 -245z" />
    <glyph glyph-name="x" unicode="x" 
d="M486 753h217l-213 -377l213 -377h-217l-104 185l-105 -185h-217l213 377l-213 377h217l105 -185z" />
    <glyph glyph-name="a" unicode="a" horiz-adv-x="838" 
d="M310 753h217l251 -754h-204l-37 111h-236l-35 -111h-206zM356 273h127l-64 190z" />
    <glyph glyph-name="b" unicode="b" horiz-adv-x="666" 
d="M600 530c0 -104 -25 -123 -47 -154c28 -32 53 -58 53 -153c0 -136 -90 -224 -221 -224h-325v753h354c113 -11 186 -87 186 -222zM358 158c38 0 68 24 68 68s-30 68 -67 68h-107v-136h106zM362 459c37 0 67 22 67 67s-30 68 -68 68h-109v-135h110z" />
    <glyph glyph-name="c" unicode="c" horiz-adv-x="764" 
d="M468 753c130 0 236 -106 236 -236v-59h-195v5c0 51 -42 93 -93 93h-68c-52 0 -94 -42 -94 -93v-171c0 -51 42 -93 94 -93h68c51 0 93 42 93 96h195v-60c0 -130 -106 -235 -236 -235h-172c-130 0 -236 105 -236 235v282c0 130 106 236 236 236h172z" />
    <glyph glyph-name="e" unicode="e" horiz-adv-x="662" 
d="M60 753h542v-198h-344v-91h266v-163h-266v-104h344v-199h-542v755z" />
    <glyph glyph-name="f" unicode="f" horiz-adv-x="662" 
d="M60 753h542v-198h-344v-91h266v-163h-266v-303h-198v755z" />
    <glyph glyph-name="g" unicode="g" horiz-adv-x="764" 
d="M468 754c130 0 236 -106 236 -236v-34h-197c-9 42 -47 73 -91 73h-68c-52 0 -94 -42 -94 -93v-171c0 -51 42 -93 94 -93h68c36 0 67 20 82 50h-104v162h310v-176c0 -130 -106 -235 -236 -235h-172c-130 0 -236 105 -236 235v282c0 130 106 236 236 236h172z" />
    <glyph glyph-name="h" unicode="h" horiz-adv-x="764" 
d="M506 470v283h198v-755h-198v283h-248v-283h-198v755h198v-283h248z" />
    <glyph glyph-name="i" unicode="i" horiz-adv-x="318" 
d="M60 -3v755h198v-755h-198z" />
    <glyph glyph-name="j" unicode="j" horiz-adv-x="609" 
d="M157 752h392v-519c0 -130 -106 -236 -236 -236h-253v200h201c51 0 93 42 93 93v273h-197v189z" />
    <glyph glyph-name="k" unicode="k" horiz-adv-x="751" 
d="M644 752l-190 -336l237 -419h-217l-216 376v-376h-198v755h198v-299l169 299h217z" />
    <glyph glyph-name="l" unicode="l" horiz-adv-x="662" 
d="M258 196h344v-199h-542v755h198v-556z" />
    <glyph glyph-name="m" unicode="m" horiz-adv-x="991" 
d="M675 752h198l58 -753h-197l-22 280l-107 -280h-220l-106 279l-21 -279h-198l58 753h198l179 -473z" />
    <glyph glyph-name="n" unicode="n" 
d="M505 348v404h198v-754h-217l-228 404v-404h-198v754h217z" />
    <glyph glyph-name="o" unicode="o" 
d="M468 752c130 0 235 -106 235 -236v-281c0 -130 -105 -236 -235 -236h-172c-131 0 -236 106 -236 236v281c0 130 105 236 236 236h172zM509 292v170c0 51 -42 93 -93 93h-68c-52 0 -94 -42 -94 -93v-170c0 -52 42 -94 94 -94h68c51 0 93 42 93 94z" />
    <glyph glyph-name="p" unicode="p" horiz-adv-x="704" 
d="M443 753c111 0 201 -90 201 -201v-112c0 -111 -90 -201 -201 -201h-185v-240h-198v754h383zM474 484v24c0 44 -35 80 -79 80h-137v-183h137c44 0 79 35 79 79z" />
    <glyph glyph-name="q" unicode="q" 
d="M703 235c0 -75 -35 -142 -90 -185l90 -160h-228l-62 109h-117c-131 0 -236 106 -236 236v281c0 130 105 236 236 236h172c130 0 235 -106 235 -236v-281zM254 292c0 -52 42 -94 94 -94h68c51 0 93 42 93 94v170c0 51 -42 93 -93 93h-68c-52 0 -94 -42 -94 -93v-170z" />
    <glyph glyph-name="r" unicode="r" horiz-adv-x="751" 
d="M644 438c0 -76 -42 -141 -104 -176l151 -265h-217l-136 240h-80v-240h-198v754h383c111 0 201 -90 201 -201v-112zM258 586v-183h137c44 0 79 35 79 79v24c0 44 -35 80 -79 80h-137z" />
    <glyph glyph-name="s" unicode="s" horiz-adv-x="662" 
d="M428 438c113 -42 174 -121 174 -238c0 -48 -22 -98 -59 -137c-40 -42 -91 -65 -143 -65h-138c-112 0 -202 91 -202 202v60h181v-16c0 -35 28 -63 62 -63h55c31 0 44 25 44 48c0 41 -89 67 -149 84c-46 13 -89 28 -128 60s-65 91 -65 147v6c2 57 19 121 59 163
c39 41 90 64 143 64h138c111 0 202 -91 202 -202v-60h-181v16c0 35 -28 63 -63 63h-55c-30 0 -44 -24 -44 -47c0 -24 23 -50 80 -62c40 -9 71 -17 89 -23z" />
    <glyph glyph-name="t" unicode="t" 
d="M60 752h643v-198h-222v-556h-198v556h-223v198z" />
    <glyph glyph-name="u" unicode="u" 
d="M509 289v462h194v-518c0 -131 -105 -236 -235 -236h-172c-131 0 -236 105 -236 236v518h194v-462c0 -51 42 -93 94 -93h68c51 0 93 42 93 93z" />
    <glyph glyph-name="v" unicode="v" horiz-adv-x="839" 
d="M779 752l-251 -753h-217l-251 753h217l142 -428l143 428h217z" />
    <glyph glyph-name="w" unicode="w" horiz-adv-x="1226" 
d="M805 321l144 431h217l-253 -754h-217l-84 253l-84 -253h-217l-251 754h217l143 -428l142 428h100z" />
    <glyph glyph-name="y" unicode="y" horiz-adv-x="830" 
d="M554 751h216l-256 -453v-301h-198v301l-256 453h217l138 -245z" />
    <glyph glyph-name="z" unicode="z" horiz-adv-x="662" 
d="M292 195h310v-198h-542v197l275 359h-275v198h531v-199z" />
    <glyph glyph-name="d" unicode="d" horiz-adv-x="762" 
d="M467 752c130 0 235 -106 235 -236v-281c0 -130 -105 -235 -235 -235h-407v752h407zM508 292v170c0 51 -41 93 -93 93h-157v-356h157c52 0 93 41 93 93z" />
    <glyph glyph-name="eight" unicode="8" horiz-adv-x="632" 
d="M506 371c44 -42 66 -98 66 -163v-9c0 -111 -91 -201 -202 -201h-109c-111 0 -201 90 -201 201v8c0 62 21 120 65 164c-40 33 -65 91 -65 147v6c2 57 19 121 59 163c39 41 90 64 143 64h108c53 0 110 -23 149 -64c40 -42 50 -106 52 -163v-7c0 -53 -23 -108 -65 -146z
M259 216c0 -42 28 -62 57 -62c28 0 57 20 57 62c0 40 -29 60 -57 60c-29 0 -57 -20 -57 -60zM259 536c0 -42 28 -63 57 -63c28 0 57 21 57 63c0 39 -29 59 -57 59c-29 0 -57 -20 -57 -59z" />
    <glyph glyph-name="four" unicode="4" horiz-adv-x="638" 
d="M381 311v123h197v-436h-197v152h-321v161l238 439h210l-220 -439h93z" />
    <glyph glyph-name="five" unicode="5" horiz-adv-x="585" 
d="M325 511c110 0 200 -90 200 -200v-112c0 -111 -90 -200 -200 -200h-265v188h217c43 0 79 35 79 80c0 44 -36 79 -79 79h-217v404h435v-197h-238v-42h68z" />
    <glyph glyph-name="six" unicode="6" horiz-adv-x="561" 
d="M339 514c89 0 162 -72 162 -161v-193c0 -89 -73 -161 -162 -161h-118c-25 0 -48 5 -69 15c-55 26 -92 82 -92 146v215s36 137 36 137l131 239h217l-126 -237h21zM339 218v79c0 23 -19 43 -43 43h-31c-24 0 -43 -20 -43 -43v-79c0 -24 19 -43 43 -43h31c24 0 43 19 43 43z
" />
    <glyph glyph-name="nine" unicode="9" horiz-adv-x="561" 
d="M409 735c54 -26 92 -81 92 -146v-215c0 -77 -36 -137 -36 -137l-132 -238h-216l125 236h-21c-89 0 -161 72 -161 162v192c0 90 72 162 161 162h118c25 0 49 -6 70 -16zM339 453v79c0 23 -19 43 -43 43h-31c-24 0 -43 -20 -43 -43v-79c0 -24 19 -43 43 -43h31
c24 0 43 19 43 43z" />
    <glyph glyph-name="three" unicode="3" horiz-adv-x="626" 
d="M375 750c121 -12 191 -95 191 -228c0 -23 -8 -137 -39 -147c0 -1 -1 -2 -2 -2c20 -26 41 -53 41 -147c0 -132 -70 -215 -191 -227h-106c-108 0 -209 98 -209 215v54h166s-2 -91 97 -91c25 0 20 3 29 6c31 10 44 34 45 57v4c0 30 -20 59 -51 59h-71v142h71
c31 0 51 29 51 60v4c-1 23 -14 46 -45 56c-8 3 -22 6 -37 6s-31 -3 -45 -11c-27 -16 -44 -45 -44 -79h-166v54c0 111 87 215 209 215h106z" />
    <glyph glyph-name="zero" unicode="0" horiz-adv-x="660" 
d="M364 752c130 0 236 -105 236 -235v-281c0 -130 -106 -235 -236 -235h-69c-130 0 -235 105 -235 235v281c0 130 105 235 235 235h69zM431 293v169c0 52 -42 94 -94 94h-15c-51 0 -93 -42 -93 -94v-169c0 -52 42 -93 93 -93h15c52 0 94 41 94 93z" />
    <glyph glyph-name="seven" unicode="7" horiz-adv-x="584" 
d="M60 750h464v-198l-185 -554h-216l185 554h-248v198z" />
    <glyph glyph-name="two" unicode="2" horiz-adv-x="636" 
d="M550 670c16 -27 26 -63 26 -102c0 -60 -23 -128 -81 -188c-4 -4 -163 -184 -163 -184h239v-197h-490v165c0 34 173 204 269 307c14 14 33 35 33 57c0 23 -21 41 -54 41h-26c-35 0 -63 -28 -63 -62v-16h-180v60c0 111 90 201 201 201h138c64 0 119 -28 151 -82z" />
    <glyph glyph-name="one" unicode="1" horiz-adv-x="381" 
d="M60 751h261v-752h-198v554h-63v198z" />
    <glyph glyph-name="numbersign" unicode="#" horiz-adv-x="904" 
d="M788 750l-40 -155h96l-45 -170h-96l-22 -82h101l-45 -170h-101l-46 -176h-170l47 176h-137l-46 -176h-170l46 176h-100l45 170h100l22 83h-105l45 169h105l40 155h170l-41 -155h137l41 155h169zM511 343l22 82h-136l-22 -82h136z" />
    <glyph glyph-name="exclam" unicode="!" horiz-adv-x="295" 
d="M235 273h-175v477h175v-477zM61 -3v188h172v-188h-172z" />
    <glyph glyph-name="question" unicode="?" horiz-adv-x="616" 
d="M387 751c62 0 115 -27 145 -79c16 -27 24 -57 24 -88c0 -16 -2 -31 -6 -47c-8 -37 -40 -87 -81 -124c-29 -27 -128 -96 -128 -139h-187c0 137 218 196 218 259c0 22 -19 42 -53 42h-25c-33 0 -60 -27 -60 -60v-16h-174v58c0 107 87 194 194 194h133zM153 -3v188h188v-188
h-188z" />
    <glyph glyph-name="backslash" unicode="\" horiz-adv-x="587" 
d="M276 751l251 -753h-216l-251 753h216z" />
    <glyph glyph-name="bar" unicode="|" horiz-adv-x="219" 
d="M60 -58v851h99v-851h-99z" />
    <glyph glyph-name="cent" unicode="&#xa2;" horiz-adv-x="762" 
d="M480 754c124 -6 222 -109 222 -234v-60h-194v5c0 52 -42 93 -93 93h-68c-51 0 -93 -41 -93 -93v-170c0 -51 42 -93 93 -93h68c51 0 93 42 93 96h194v-59c0 -126 -98 -229 -222 -235v-108h-198v108c-124 6 -222 109 -222 235v281c0 125 98 228 222 234v109h198v-109z" />
    <glyph glyph-name="dollar" unicode="$" horiz-adv-x="663" 
d="M428 436c114 -42 175 -121 175 -238c0 -48 -22 -99 -59 -138c-32 -33 -72 -55 -113 -62v-109h-199v109c-97 14 -172 99 -172 200v60h181v-16c0 -35 28 -63 63 -63h55c30 0 44 25 44 48c0 41 -90 67 -149 84c-47 13 -90 29 -128 60c-40 33 -66 91 -66 153
c0 58 19 122 59 164c32 33 71 55 113 61v110h199v-109c97 -15 172 -99 172 -200v-60h-182v16c0 35 -28 63 -62 63h-55c-26 0 -44 -22 -44 -48c0 -24 23 -50 80 -63c34 -7 68 -14 88 -22z" />
    <glyph glyph-name="quotedbl" unicode="&#x22;" horiz-adv-x="492" 
d="M227 485h-115l-52 266h167v-266zM265 485l1 266h166l-52 -266h-115z" />
    <glyph glyph-name="quotesingle" unicode="'" horiz-adv-x="287" 
d="M60 485l1 266h166l-52 -266h-115z" />
    <glyph glyph-name="grave" unicode="`" horiz-adv-x="293" 
d="M189 803l-129 129l43 44l130 -132z" />
    <glyph glyph-name="period" unicode="." horiz-adv-x="286" 
d="M60 -1v167h166v-167h-166z" />
    <glyph glyph-name="comma" unicode="," horiz-adv-x="287" 
d="M60 -98l1 266h166l-52 -266h-115z" />
    <glyph glyph-name="semicolon" unicode=";" horiz-adv-x="287" 
d="M60 -98l1 266h166l-52 -266h-115zM61 278v167h166v-167h-166z" />
    <glyph glyph-name="colon" unicode=":" horiz-adv-x="286" 
d="M60 278v167h166v-167h-166zM60 -1v167h166v-167h-166z" />
    <glyph glyph-name="quoteright" unicode="&#x2019;" horiz-adv-x="287" 
d="M227 485h-115l-52 266h167v-266z" />
    <glyph glyph-name="quotedblright" unicode="&#x201d;" horiz-adv-x="479" 
d="M227 485h-115l-52 266h167v-266zM419 485h-115l-52 266h167v-266z" />
    <glyph glyph-name="quoteleft" unicode="&#x2018;" horiz-adv-x="287" 
d="M60 485l1 266h166l-52 -266h-115z" />
    <glyph glyph-name="quotedblleft" unicode="&#x201c;" horiz-adv-x="477" 
d="M60 485l1 266h166l-52 -266h-115zM250 485l1 266h166l-52 -266h-115z" />
    <glyph glyph-name="plus" unicode="+" horiz-adv-x="683" 
d="M268 1v208h-208v148h208v208h148v-208h207v-148h-207v-208h-148z" />
    <glyph glyph-name="hyphen" unicode="-" horiz-adv-x="683" 
d="M623 209h-563v148h563v-148z" />
    <glyph glyph-name="equal" unicode="=" horiz-adv-x="563" 
d="M503 327h-443v148h443v-148zM503 117h-443v148h443v-148z" />
    <glyph glyph-name="underscore" unicode="_" horiz-adv-x="683" 
d="M623 -77h-563v78h563v-78z" />
    <glyph glyph-name="bullet" unicode="&#x2022;" horiz-adv-x="310" 
d="M155 398c52 0 95 -43 95 -95c0 -53 -43 -95 -95 -95c-53 0 -95 42 -95 95c0 52 42 95 95 95z" />
    <glyph glyph-name="percent" unicode="%" horiz-adv-x="963" 
d="M356 -1h-176l427 754h176zM198 313c-76 0 -138 61 -138 138v164c0 76 62 138 138 138h40c76 0 138 -62 138 -138v-164c0 -77 -62 -138 -138 -138h-40zM180 571v-76c0 -20 16 -36 35 -36h6c19 0 35 16 35 36v76c0 19 -16 35 -35 35h-6c-19 0 -35 -16 -35 -35zM766 439
c76 0 137 -62 137 -138v-165c0 -76 -61 -137 -137 -137h-41c-76 0 -138 61 -138 137v165c0 76 62 138 138 138h41zM784 181v76c0 19 -16 35 -36 35h-6c-19 0 -35 -16 -35 -35v-76c0 -20 16 -36 35 -36h6c20 0 36 16 36 36z" />
    <glyph glyph-name="asterisk" unicode="*" horiz-adv-x="577" 
d="M505 457l-122 12l77 -111l-127 -55l-50 116l-65 -122l-107 88l69 82l-120 -11l13 137l121 -12l-76 111l126 55l50 -116l65 122l107 -88l-69 -84l120 13z" />
    <glyph glyph-name="at" unicode="@" horiz-adv-x="889" 
d="M444 754c213 0 385 -172 385 -385c0 -124 -45 -235 -174 -235c-101 0 -146 72 -160 114c-1 2 -2 4 -3 4s-1 -2 -2 -5c-7 -24 -41 -41 -81 -41c-14 0 -29 3 -44 7c-57 18 -92 87 -92 156c0 93 64 162 157 162c25 0 51 -8 51 -22c0 14 12 22 35 22h43c23 0 35 -11 35 -33
v-129c0 -90 30 -121 61 -121c32 0 61 31 61 121c0 150 -121 271 -273 271c-149 0 -269 -121 -269 -271c0 -142 106 -251 244 -251c7 0 14 0 21 1c23 2 65 11 65 11l63 -101s-83 -26 -127 -28c-7 0 -13 -1 -20 -1c-203 0 -360 164 -360 369c0 213 172 385 384 385zM484 369v9
c0 33 -19 48 -44 48c-26 0 -52 -18 -55 -57v-6c0 -31 21 -48 45 -48c27 0 51 19 54 54z" />
    <glyph glyph-name="less" unicode="&#x3c;" horiz-adv-x="519" 
d="M459 498l-198 -199l198 -199l-100 -100l-299 299l299 299z" />
    <glyph glyph-name="greater" unicode="&#x3e;" horiz-adv-x="519" 
d="M60 100l198 199l-198 199l100 100l299 -299l-299 -299z" />
    <glyph glyph-name="asciicircum" unicode="^" horiz-adv-x="615" 
d="M472 420l-165 164l-164 -164l-83 83l247 247l248 -247z" />
    <glyph glyph-name="braceright" unicode="}" horiz-adv-x="431" 
d="M312 787v-339h59v-144h-59v-339h-252v168h84v486h-84v168h252z" />
    <glyph glyph-name="braceleft" unicode="{" horiz-adv-x="431" 
d="M119 -35v339h-59v144h59v339h252v-168h-84v-486h84v-168h-252z" />
    <glyph glyph-name="bracketleft" unicode="[" horiz-adv-x="372" 
d="M60 -35v822h252v-168h-84v-486h84v-168h-252z" />
    <glyph glyph-name="bracketright" unicode="]" horiz-adv-x="372" 
d="M312 787v-822h-252v168h84v486h-84v168h252z" />
    <glyph glyph-name="parenright" unicode=")" horiz-adv-x="402" 
d="M141 785c111 0 201 -90 201 -201v-421c0 -110 -90 -200 -201 -200h-81v169h37c44 0 80 36 80 80v326c0 44 -36 79 -80 79h-37v168h81z" />
    <glyph glyph-name="parenleft" unicode="(" horiz-adv-x="402" 
d="M261 -37c-111 0 -201 90 -201 201v421c0 110 90 200 201 200h81v-169h-37c-44 0 -80 -36 -80 -80v-326c0 -44 36 -79 80 -79h37v-168h-81z" />
    <glyph glyph-name="J" unicode="J" horiz-adv-x="609" 
d="M157 752h392v-519c0 -130 -106 -236 -236 -236h-253v200h201c51 0 93 42 93 93v273h-197v189z" />
    <glyph glyph-name="Euro" unicode="&#x20ac;" horiz-adv-x="858" 
d="M798 458h-194v5c0 51 -42 93 -94 93h-68c-42 0 -78 -29 -89 -67h96v-101h-100v-24h100v-100h-96c12 -38 48 -65 89 -65h68c52 0 94 42 94 96h194v-60c0 -130 -105 -236 -236 -236h-172c-130 0 -236 106 -236 236v29h-94v100h94v24h-94v101h94v28c0 130 106 236 236 236
h172c131 0 236 -106 236 -236v-59z" />
    <glyph glyph-name="A" unicode="A" horiz-adv-x="838" 
d="M310 753h217l251 -754h-204l-37 111h-236l-35 -111h-206zM356 273h127l-64 190z" />
    <glyph glyph-name="K" unicode="K" horiz-adv-x="751" 
d="M644 752l-190 -336l237 -419h-217l-216 376v-376h-198v755h198v-299l169 299h217z" />
    <glyph glyph-name="G" unicode="G" horiz-adv-x="764" 
d="M468 754c130 0 236 -106 236 -236v-34h-197c-9 42 -47 73 -91 73h-68c-52 0 -94 -42 -94 -93v-171c0 -51 42 -93 94 -93h68c36 0 67 20 82 50h-104v162h310v-176c0 -130 -106 -235 -236 -235h-172c-130 0 -236 105 -236 235v282c0 130 106 236 236 236h172z" />
    <glyph glyph-name="circumflex" unicode="&#x2c6;" horiz-adv-x="381" 
d="M190 889l-86 -87l-44 44l130 131l131 -131l-44 -44z" />
    <glyph glyph-name="Acircumflex" unicode="&#xc2;" horiz-adv-x="819" 
d="M514 731l245 -732h-200l-36 107h-228l-36 -107h-199l244 732h210zM348 264h122l-61 186zM409 889l-86 -87l-44 44l130 131l131 -131l-44 -44z" />
    <glyph glyph-name="Aacute" unicode="&#xc1;" horiz-adv-x="818" 
d="M559 0l-36 107h-229l-35 -107h-199l243 732h211l244 -732h-199zM347 266h123l-61 184zM527 933l-131 -130l-44 43l131 131z" />
    <glyph glyph-name="Agrave" unicode="&#xc0;" horiz-adv-x="818" 
d="M294 106l-36 -107h-198l243 731h211l244 -731h-200l-34 107h-230zM348 266h121l-60 182zM421 803l-129 129l43 44l130 -132z" />
    <glyph glyph-name="Atilde" unicode="&#xc3;" horiz-adv-x="829" 
d="M567 -1l-37 109h-231l-37 -109h-202l248 744h213l248 -744h-202zM352 270h125l-63 187zM553 918v-36c0 -23 -19 -32 -47 -32c-57 0 -152 32 -201 32c-17 0 -27 -3 -30 -14v78c0 20 13 26 35 26c52 0 146 -37 204 -37c16 0 31 3 39 11v-28z" />
    <glyph glyph-name="Adieresis" unicode="&#xc4;" horiz-adv-x="816" 
d="M302 797c-49 0 -90 40 -90 91c0 50 41 90 90 90c51 0 92 -40 92 -90c0 -51 -41 -91 -92 -91zM514 797c-51 0 -91 40 -91 91c0 50 40 90 91 90c50 0 90 -40 90 -90c0 -51 -40 -91 -90 -91zM558 -1l-36 108h-228l-36 -108h-198l243 731h210l243 -731h-198zM347 264h123
l-62 185z" />
    <glyph glyph-name="Aring" unicode="&#xc5;" horiz-adv-x="816" 
d="M408 797c-49 0 -90 40 -90 91c0 50 41 90 90 90c50 0 90 -40 90 -90c0 -51 -40 -91 -90 -91zM408 922c-19 0 -34 -16 -34 -34c0 -19 15 -34 34 -34s34 15 34 34c0 18 -15 34 -34 34zM513 730l243 -731h-198l-36 108h-228l-36 -108h-198l243 731h210zM347 264h123l-62 185
z" />
    <glyph glyph-name="AE" unicode="&#xc6;" horiz-adv-x="1116" 
d="M1056 555h-344v-91h266v-162h-266v-105h344v-197h-541v110h-214l-36 -110h-205l251 752h745v-197zM515 273v282h-66l-94 -282h160z" />
    <glyph glyph-name="agrave" unicode="&#xe0;" horiz-adv-x="818" 
d="M294 106l-36 -107h-198l243 731h211l244 -731h-200l-34 107h-230zM348 266h121l-60 182zM421 803l-129 129l43 44l130 -132z" />
    <glyph glyph-name="aacute" unicode="&#xe1;" horiz-adv-x="818" 
d="M559 0l-36 107h-229l-35 -107h-199l243 732h211l244 -732h-199zM347 266h123l-61 184zM527 933l-131 -130l-44 43l131 131z" />
    <glyph glyph-name="acircumflex" unicode="&#xe2;" horiz-adv-x="819" 
d="M514 731l245 -732h-200l-36 107h-228l-36 -107h-199l244 732h210zM348 264h122l-61 186zM409 889l-86 -87l-44 44l130 131l131 -131l-44 -44z" />
    <glyph glyph-name="atilde" unicode="&#xe3;" horiz-adv-x="838" 
d="M567 -1l-37 109h-231l-37 -109h-202l248 744h213l248 -744h-202zM352 270h125l-63 187zM553 918v-36c0 -23 -19 -32 -47 -32c-57 0 -152 32 -201 32c-17 0 -27 -3 -30 -14v78c0 20 13 26 35 26c52 0 146 -37 204 -37c16 0 31 3 39 11v-28z" />
    <glyph glyph-name="adieresis" unicode="&#xe4;" horiz-adv-x="838" 
d="M302 797c-49 0 -90 40 -90 91c0 50 41 90 90 90c51 0 92 -40 92 -90c0 -51 -41 -91 -92 -91zM514 797c-51 0 -91 40 -91 91c0 50 40 90 91 90c50 0 90 -40 90 -90c0 -51 -40 -91 -90 -91zM558 -1l-36 108h-228l-36 -108h-198l243 731h210l243 -731h-198zM347 264h123
l-62 185z" />
    <glyph glyph-name="aring" unicode="&#xe5;" horiz-adv-x="838" 
d="M408 797c-49 0 -90 40 -90 91c0 50 41 90 90 90c50 0 90 -40 90 -90c0 -51 -40 -91 -90 -91zM408 922c-19 0 -34 -16 -34 -34c0 -19 15 -34 34 -34s34 15 34 34c0 18 -15 34 -34 34zM513 730l243 -731h-198l-36 108h-228l-36 -108h-198l243 731h210zM347 264h123l-62 185
z" />
    <glyph glyph-name="ae" unicode="&#xe6;" horiz-adv-x="1116" 
d="M1056 555h-344v-91h266v-162h-266v-105h344v-197h-541v110h-214l-36 -110h-205l251 752h745v-197zM515 273v282h-66l-94 -282h160z" />
    <glyph glyph-name="ring" unicode="&#x2da;" horiz-adv-x="300" 
d="M150 572c-49 0 -90 40 -90 91c0 50 41 90 90 90c50 0 90 -40 90 -90c0 -51 -40 -91 -90 -91zM150 697c-19 0 -34 -16 -34 -34c0 -19 15 -34 34 -34s34 15 34 34c0 18 -15 34 -34 34z" />
    <glyph glyph-name="caron" unicode="&#x2c7;" horiz-adv-x="381" 
d="M191 889l86 87l44 -44l-130 -131l-131 131l44 44z" />
    <glyph glyph-name="Ccedilla" unicode="&#xc7;" horiz-adv-x="748" 
d="M688 447h-191v5c0 49 -40 91 -89 91h-68c-50 0 -90 -42 -90 -91v-166c0 -51 40 -92 90 -92h68c49 0 89 41 89 95h191v-60c0 -126 -104 -230 -230 -230h-28v-21h38c78 0 143 -66 143 -139v-70c-7 -81 -63 -128 -151 -128h-208v113h198c24 0 42 23 42 49
c0 51 -35 62 -52 64h-136v132h-14c-127 0 -230 104 -230 230v276c0 127 103 230 230 230h168c126 0 230 -103 230 -230v-58z" />
    <glyph glyph-name="ccedilla" unicode="&#xe7;" horiz-adv-x="748" 
d="M688 447h-191v5c0 49 -40 91 -89 91h-68c-50 0 -90 -42 -90 -91v-166c0 -51 40 -92 90 -92h68c49 0 89 41 89 95h191v-60c0 -126 -104 -230 -230 -230h-28v-21h38c78 0 143 -66 143 -139v-70c-7 -81 -63 -128 -151 -128h-208v113h198c24 0 42 23 42 49
c0 51 -35 62 -52 64h-136v132h-14c-127 0 -230 104 -230 230v276c0 127 103 230 230 230h168c126 0 230 -103 230 -230v-58z" />
    <glyph glyph-name="endash" unicode="&#x2013;" horiz-adv-x="563" 
d="M503 258h-443v78h443v-78z" />
    <glyph glyph-name="emdash" unicode="&#x2014;" horiz-adv-x="713" 
d="M653 258h-593v78h593v-78z" />
    <glyph glyph-name="tilde" unicode="&#x2dc;" horiz-adv-x="398" 
d="M338 918v-36c0 -23 -19 -32 -47 -32c-57 0 -152 32 -201 32c-17 0 -27 -3 -30 -14v78c0 20 13 26 35 26c52 0 146 -37 204 -37c16 0 31 3 39 11v-28z" />
    <glyph glyph-name="trademark" unicode="&#x2122;" horiz-adv-x="703" 
d="M60 752h249v-77h-86v-215h-77v215h-86v77zM544 752h76l23 -292h-76l-9 109l-41 -109h-86l-41 108l-8 -108h-77l23 292h77l69 -183z" />
    <glyph glyph-name="scaron" unicode="&#x161;" horiz-adv-x="662" 
d="M428 438c113 -42 174 -121 174 -238c0 -48 -22 -98 -59 -137c-40 -42 -91 -65 -143 -65h-138c-112 0 -202 91 -202 202v60h181v-16c0 -35 28 -63 62 -63h55c31 0 44 25 44 48c0 41 -89 67 -149 84c-46 13 -89 28 -128 60s-65 91 -65 147v6c2 57 19 121 59 163
c39 41 90 64 143 64h138c111 0 202 -91 202 -202v-60h-181v16c0 35 -28 63 -63 63h-55c-30 0 -44 -24 -44 -47c0 -24 23 -50 80 -62c40 -9 71 -17 89 -23zM331 889l86 87l44 -44l-130 -131l-131 131l44 44z" />
    <glyph glyph-name="acute" unicode="&#xb4;" horiz-adv-x="295" 
d="M104 802l-44 43l131 131l44 -44z" />
    <glyph glyph-name="Egrave" unicode="&#xc8;" horiz-adv-x="647" 
d="M411 845l-44 -43l-131 130l44 44zM587 538h-335v-88h259v-158h-259v-102h335v-193h-527v734h527v-193z" />
    <glyph glyph-name="Eacute" unicode="&#xc9;" horiz-adv-x="647" 
d="M280 802l-44 43l131 131l44 -44zM587 538h-335v-88h259v-158h-259v-102h335v-193h-527v734h527v-193z" />
    <glyph glyph-name="Ecircumflex" unicode="&#xca;" horiz-adv-x="647" 
d="M324 890l-87 -86l-44 43l131 131l130 -131l-44 -43zM587 540h-335v-88h259v-158h-259v-102h335v-193h-527v734h527v-193z" />
    <glyph glyph-name="Edieresis" unicode="&#xcb;" horiz-adv-x="645" 
d="M217 795c-50 0 -90 41 -90 90c0 50 40 91 90 91s91 -41 91 -91c0 -49 -41 -90 -91 -90zM428 795c-50 0 -90 41 -90 90c0 50 40 91 90 91s91 -41 91 -91c0 -49 -41 -90 -91 -90zM585 536h-333v-88h258v-157h-258v-102h333v-192h-525v731h525v-192z" />
    <glyph glyph-name="egrave" unicode="&#xe8;" horiz-adv-x="647" 
d="M411 845l-44 -43l-131 130l44 44zM587 538h-335v-88h259v-158h-259v-102h335v-193h-527v734h527v-193z" />
    <glyph glyph-name="eacute" unicode="&#xe9;" horiz-adv-x="647" 
d="M280 802l-44 43l131 131l44 -44zM587 538h-335v-88h259v-158h-259v-102h335v-193h-527v734h527v-193z" />
    <glyph glyph-name="ecircumflex" unicode="&#xea;" horiz-adv-x="647" 
d="M324 890l-87 -86l-44 43l131 131l130 -131l-44 -43zM587 540h-335v-88h259v-158h-259v-102h335v-193h-527v734h527v-193z" />
    <glyph glyph-name="edieresis" unicode="&#xeb;" horiz-adv-x="645" 
d="M217 795c-50 0 -90 41 -90 90c0 50 40 91 90 91s91 -41 91 -91c0 -49 -41 -90 -91 -90zM428 795c-50 0 -90 41 -90 90c0 50 40 91 90 91s91 -41 91 -91c0 -49 -41 -90 -91 -90zM585 536h-333v-88h258v-157h-258v-102h333v-192h-525v731h525v-192z" />
    <glyph glyph-name="Scaron" unicode="&#x160;" horiz-adv-x="662" 
d="M428 438c113 -42 174 -121 174 -238c0 -48 -22 -98 -59 -137c-40 -42 -91 -65 -143 -65h-138c-112 0 -202 91 -202 202v60h181v-16c0 -35 28 -63 62 -63h55c31 0 44 25 44 48c0 41 -89 67 -149 84c-46 13 -89 28 -128 60s-65 91 -65 147v6c2 57 19 121 59 163
c39 41 90 64 143 64h138c111 0 202 -91 202 -202v-60h-181v16c0 35 -28 63 -63 63h-55c-30 0 -44 -24 -44 -47c0 -24 23 -50 80 -62c40 -9 71 -17 89 -23zM331 890l86 87l44 -44l-130 -131l-131 131l44 44z" />
    <glyph glyph-name="cedilla" unicode="&#xb8;" horiz-adv-x="280" 
d="M156 -29c35 0 64 -30 64 -62v-31c-3 -36 -28 -57 -67 -57h-93v50h89c8 2 18 10 18 22c0 23 -15 28 -23 29h-61v78h56v-29h17z" />
    <glyph glyph-name="degree" unicode="&#xb0;" horiz-adv-x="371" 
d="M185 501c-68 0 -125 55 -125 126c0 70 57 126 125 126c70 0 126 -56 126 -126c0 -71 -56 -126 -126 -126zM185 675c-26 0 -47 -22 -47 -48s21 -47 47 -47c27 0 48 21 48 47s-21 48 -48 48z" />
    <glyph glyph-name="asciitilde" unicode="~" horiz-adv-x="398" 
d="M338 308v-36c0 -23 -19 -32 -47 -32c-57 0 -152 32 -201 32c-17 0 -27 -3 -30 -14v78c0 20 13 26 35 26c52 0 146 -37 204 -37c16 0 31 3 39 11v-28z" />
    <glyph glyph-name="OE" unicode="&#x152;" horiz-adv-x="1111" 
d="M1051 554h-343v-90h266v-163h-266v-105h343v-198h-542v4c-13 -2 -27 -4 -42 -4h-172c-129 0 -235 106 -235 236v281c0 131 106 235 235 235h172c14 0 28 0 41 -3l1 5h542v-198zM509 290v171c0 51 -42 93 -94 93h-67c-52 0 -94 -42 -94 -93v-171c0 -51 42 -92 94 -92h67
c52 0 94 41 94 92z" />
    <glyph glyph-name="guilsinglleft" unicode="&#x2039;" horiz-adv-x="528" 
d="M468 504l-204 -204l204 -203l-103 -102l-305 305l305 306z" />
    <glyph glyph-name="guillemotleft" unicode="&#xab;" horiz-adv-x="818" 
d="M468 504l-204 -204l204 -203l-103 -102l-305 305l305 306zM758 504l-204 -204l204 -203l-103 -102l-305 305l305 306z" />
    <glyph glyph-name="guillemotright" unicode="&#xbb;" horiz-adv-x="818" 
d="M350 96l204 204l-204 203l103 102l305 -305l-305 -306zM60 96l204 204l-204 203l103 102l305 -305l-305 -306z" />
    <glyph glyph-name="guilsinglright" unicode="&#x203a;" horiz-adv-x="528" 
d="M60 96l204 204l-204 203l103 102l305 -305l-305 -306z" />
    <glyph glyph-name="oe" unicode="&#x153;" horiz-adv-x="1111" 
d="M1051 554h-343v-90h266v-163h-266v-105h343v-198h-542v4c-13 -2 -27 -4 -42 -4h-172c-129 0 -235 106 -235 236v281c0 131 106 235 235 235h172c14 0 28 0 41 -3l1 5h542v-198zM509 290v171c0 51 -42 93 -94 93h-67c-52 0 -94 -42 -94 -93v-171c0 -51 42 -92 94 -92h67
c52 0 94 41 94 92z" />
    <glyph glyph-name="quotesinglbase" unicode="&#x201a;" horiz-adv-x="287" 
d="M60 -98l1 266h166l-52 -266h-115z" />
    <glyph glyph-name="quotedblbase" unicode="&#x201e;" horiz-adv-x="477" 
d="M60 -98l1 266h166l-52 -266h-115zM250 -98l1 266h166l-52 -266h-115z" />
    <glyph glyph-name="exclamdown" unicode="&#xa1;" horiz-adv-x="295" 
d="M60 168h175v-477h-175v477zM234 444v-188h-172v188h172z" />
    <glyph glyph-name="questiondown" unicode="&#xbf;" horiz-adv-x="616" 
d="M229 -310c-62 0 -115 27 -145 79c-16 27 -24 57 -24 88c0 16 2 31 6 47c8 37 40 87 81 124c29 27 128 96 128 139h187c0 -137 -218 -196 -218 -259c0 -22 19 -42 53 -42h25c33 0 60 27 60 60v16h174v-58c0 -107 -87 -194 -194 -194h-133zM463 444v-188h-188v188h188z" />
    <glyph glyph-name="onesuperior" unicode="&#xb9;" horiz-adv-x="232" 
d="M60 751h112v-321h-85v237h-27v84z" />
    <glyph glyph-name="twosuperior" unicode="&#xb2;" horiz-adv-x="346" 
d="M275 716c7 -12 11 -28 11 -45c0 -26 -10 -56 -35 -82c-2 -2 -72 -81 -72 -81h105v-86h-215v72c0 15 76 90 118 135c6 6 14 15 14 25s-9 18 -23 18h-12c-15 0 -27 -12 -27 -27v-7h-79v26c0 49 39 88 88 88h60c29 0 53 -12 67 -36z" />
    <glyph glyph-name="threesuperior" unicode="&#xb3;" horiz-adv-x="337" 
d="M195 750c52 -5 82 -41 82 -98c0 -18 0 -53 -17 -64c8 -11 17 -23 17 -63c0 -57 -30 -93 -82 -98h-45c-47 0 -90 42 -90 93v23h71s-1 -39 42 -39c11 0 9 1 12 2c14 5 19 15 20 27c0 12 -9 25 -22 25h-31v61h31c13 0 22 12 22 27c-1 10 -6 20 -20 25c-3 1 -9 2 -15 2
c-7 0 -14 -1 -20 -5c-11 -7 -19 -19 -19 -34h-71v24c0 47 37 92 90 92h45z" />
    <glyph glyph-name="Igrave" unicode="&#xcc;" horiz-adv-x="313" 
d="M253 842l-44 -44l-131 131l44 44zM60 -2v734h193v-734h-193z" />
    <glyph glyph-name="Iacute" unicode="&#xcd;" horiz-adv-x="313" 
d="M104 798l-44 44l131 131l44 -44zM253 732v-734h-193v734h193z" />
    <glyph glyph-name="Icircumflex" unicode="&#xce;" horiz-adv-x="382" 
d="M191 887l-87 -87l-44 44l131 131l131 -131l-44 -44zM94 -2v736h193v-736h-193z" />
    <glyph glyph-name="Idieresis" unicode="&#xcf;" horiz-adv-x="513" 
d="M242 884c0 -50 -41 -91 -91 -91s-91 41 -91 91s41 91 91 91s91 -41 91 -91zM363 975c50 0 90 -41 90 -91s-40 -91 -90 -91c-51 0 -91 41 -91 91s40 91 91 91zM160 -2v733h193v-733h-193z" />
    <glyph glyph-name="igrave" unicode="&#xec;" horiz-adv-x="313" 
d="M253 842l-44 -44l-131 131l44 44zM60 -2v734h193v-734h-193z" />
    <glyph glyph-name="iacute" unicode="&#xed;" horiz-adv-x="313" 
d="M104 798l-44 44l131 131l44 -44zM253 732v-734h-193v734h193z" />
    <glyph glyph-name="icircumflex" unicode="&#xee;" horiz-adv-x="382" 
d="M191 887l-87 -87l-44 44l131 131l131 -131l-44 -44zM94 -2v736h193v-736h-193z" />
    <glyph glyph-name="idieresis" unicode="&#xef;" horiz-adv-x="393" 
d="M182 884c0 -50 -41 -91 -91 -91s-91 41 -91 91s41 91 91 91s91 -41 91 -91zM303 975c50 0 90 -41 90 -91s-40 -91 -90 -91c-51 0 -91 41 -91 91s40 91 91 91zM100 -2v733h193v-733h-193z" />
    <glyph glyph-name="Ugrave" unicode="&#xd9;" horiz-adv-x="743" 
d="M285 925l43 44l131 -130l-44 -44zM495 282v447h188v-502c0 -126 -102 -228 -228 -228h-167c-126 0 -228 102 -228 228v502h188v-447c0 -50 41 -90 91 -90h66c50 0 90 40 90 90z" />
    <glyph glyph-name="Udieresis" unicode="&#xdc;" horiz-adv-x="743" 
d="M357 882c0 -49 -41 -90 -91 -90s-90 41 -90 90c0 50 40 91 90 91s91 -41 91 -91zM568 882c0 -49 -41 -90 -91 -90s-90 41 -90 90c0 50 40 91 90 91s91 -41 91 -91zM495 282v448h188v-503c0 -126 -102 -228 -228 -228h-167c-126 0 -228 102 -228 228v503h188v-448
c0 -49 41 -90 91 -90h66c50 0 90 41 90 90z" />
    <glyph glyph-name="Ucircumflex" unicode="&#xdb;" horiz-adv-x="748" 
d="M374 887l-87 -87l-44 44l131 131l131 -131l-44 -44zM499 733h189v-506c0 -127 -103 -230 -230 -230h-168c-127 0 -230 103 -230 230v506h190v-451c0 -50 41 -91 91 -91h66c51 0 92 41 92 91v451z" />
    <glyph glyph-name="Uacute" unicode="&#xda;" horiz-adv-x="743" 
d="M415 969l43 -44l-130 -130l-43 44zM495 282v447h188v-502c0 -126 -102 -228 -228 -228h-167c-126 0 -228 102 -228 228v502h188v-447c0 -50 41 -90 91 -90h66c50 0 90 40 90 90z" />
    <glyph glyph-name="ugrave" unicode="&#xf9;" horiz-adv-x="743" 
d="M285 925l43 44l131 -130l-44 -44zM495 282v447h188v-502c0 -126 -102 -228 -228 -228h-167c-126 0 -228 102 -228 228v502h188v-447c0 -50 41 -90 91 -90h66c50 0 90 40 90 90z" />
    <glyph glyph-name="uacute" unicode="&#xfa;" horiz-adv-x="743" 
d="M415 969l43 -44l-130 -130l-43 44zM495 282v447h188v-502c0 -126 -102 -228 -228 -228h-167c-126 0 -228 102 -228 228v502h188v-447c0 -50 41 -90 91 -90h66c50 0 90 40 90 90z" />
    <glyph glyph-name="ucircumflex" unicode="&#xfb;" horiz-adv-x="748" 
d="M374 887l-87 -87l-44 44l131 131l131 -131l-44 -44zM499 733h189v-506c0 -127 -103 -230 -230 -230h-168c-127 0 -230 103 -230 230v506h190v-451c0 -50 41 -91 91 -91h66c51 0 92 41 92 91v451z" />
    <glyph glyph-name="udieresis" unicode="&#xfc;" horiz-adv-x="743" 
d="M357 882c0 -49 -41 -90 -91 -90s-90 41 -90 90c0 50 40 91 90 91s91 -41 91 -91zM568 882c0 -49 -41 -90 -91 -90s-90 41 -90 90c0 50 40 91 90 91s91 -41 91 -91zM495 282v448h188v-503c0 -126 -102 -228 -228 -228h-167c-126 0 -228 102 -228 228v503h188v-448
c0 -49 41 -90 91 -90h66c50 0 90 41 90 90z" />
    <glyph glyph-name="Ntilde" unicode="&#xd1;" horiz-adv-x="752" 
d="M497 737h195v-740h-213l-225 397v-397h-194v740h213l224 -397v397zM542 940v-79c0 -29 -24 -39 -59 -39c-71 0 -187 39 -246 39c-20 0 -34 -4 -37 -16v95c0 24 18 32 45 32c63 0 178 -45 249 -45c20 0 37 3 48 13z" />
    <glyph glyph-name="ntilde" unicode="&#xf1;" horiz-adv-x="752" 
d="M497 737h195v-740h-213l-225 397v-397h-194v740h213l224 -397v397zM542 940v-79c0 -29 -24 -39 -59 -39c-71 0 -187 39 -246 39c-20 0 -34 -4 -37 -16v95c0 24 18 32 45 32c63 0 178 -45 249 -45c20 0 37 3 48 13z" />
    <glyph glyph-name="dieresis" unicode="&#xa8;" horiz-adv-x="512" 
d="M150 795c-50 0 -90 41 -90 90c0 50 40 91 90 91s91 -41 91 -91c0 -49 -41 -90 -91 -90zM361 795c-50 0 -90 41 -90 90c0 50 40 91 90 91s91 -41 91 -91c0 -49 -41 -90 -91 -90z" />
    <glyph glyph-name="plusminus" unicode="&#xb1;" horiz-adv-x="536" 
d="M215 160v152h-153v108h153v152h108v-152h151v-108h-151v-152h-108zM60 41h416v-112h-416v112z" />
    <glyph glyph-name="section" unicode="&#xa7;" horiz-adv-x="662" 
d="M602 559h-181v16c0 35 -28 63 -63 63h-55c-30 0 -44 -24 -44 -47c0 -24 23 -50 80 -62c40 -9 71 -17 101 -28c93 -20 162 -102 162 -200c0 -16 -2 -109 -66 -177c43 -43 66 -100 66 -172c0 -48 -22 -98 -59 -137c-40 -42 -91 -65 -143 -65h-138c-112 0 -202 91 -202 202
v60h181c0 -51 28 -79 62 -79h55c31 0 44 25 44 48c0 41 -89 67 -149 84c-1 1 -3 1 -4 1c-103 9 -184 90 -189 202v10c2 57 19 121 59 163l3 3c-38 32 -62 90 -62 144v6c5 116 74 227 202 227h138c111 0 202 -91 202 -202v-60zM259 283c0 -18 9 -34 44 -34h55
c31 0 44 16 44 41s-28 32 -44 32h-55c-30 0 -44 -20 -44 -39z" />
    <glyph glyph-name="Otilde" unicode="&#xd5;" horiz-adv-x="755" 
d="M462 742c129 0 233 -105 233 -233v-278c0 -129 -104 -233 -233 -233h-169c-129 0 -233 104 -233 233v278c0 128 104 233 233 233h169zM503 287v168c0 51 -41 92 -92 92h-67c-51 0 -92 -41 -92 -92v-168c0 -51 41 -92 92 -92h67c51 0 92 41 92 92zM549 942v-80
c0 -29 -24 -38 -59 -38c-71 0 -187 39 -247 39c-20 0 -34 -4 -37 -16v95c0 24 17 32 44 32c63 0 179 -46 251 -46c21 0 37 4 48 14z" />
    <glyph glyph-name="otilde" unicode="&#xf5;" horiz-adv-x="695" 
d="M402 742c129 0 233 -105 233 -233v-278c0 -129 -104 -233 -233 -233h-169c-129 0 -233 104 -233 233v278c0 128 104 233 233 233h169zM443 287v168c0 51 -41 92 -92 92h-67c-51 0 -92 -41 -92 -92v-168c0 -51 41 -92 92 -92h67c51 0 92 41 92 92zM489 942v-80
c0 -29 -24 -38 -59 -38c-71 0 -187 39 -247 39c-20 0 -34 -4 -37 -16v95c0 24 17 32 44 32c63 0 179 -46 251 -46c21 0 37 4 48 14z" />
    <glyph glyph-name="Odieresis" unicode="&#xd6;" horiz-adv-x="742" 
d="M356 880c0 -50 -41 -91 -90 -91c-50 0 -91 41 -91 91s41 90 91 90c49 0 90 -40 90 -90zM567 880c0 -50 -41 -91 -91 -91s-90 41 -90 91s40 90 90 90s91 -40 91 -90zM454 726c126 0 228 -102 228 -228v-272c0 -126 -102 -228 -228 -228h-166c-126 0 -228 102 -228 228v272
c0 126 102 228 228 228h166zM494 280v165c0 50 -40 90 -90 90h-66c-50 0 -90 -40 -90 -90v-165c0 -49 40 -90 90 -90h66c50 0 90 41 90 90z" />
    <glyph glyph-name="odieresis" unicode="&#xf6;" horiz-adv-x="682" 
d="M296 880c0 -50 -41 -91 -90 -91c-50 0 -91 41 -91 91s41 90 91 90c49 0 90 -40 90 -90zM507 880c0 -50 -41 -91 -91 -91s-90 41 -90 91s40 90 90 90s91 -40 91 -90zM394 726c126 0 228 -102 228 -228v-272c0 -126 -102 -228 -228 -228h-166c-126 0 -228 102 -228 228v272
c0 126 102 228 228 228h166zM434 280v165c0 50 -40 90 -90 90h-66c-50 0 -90 -40 -90 -90v-165c0 -49 40 -90 90 -90h66c50 0 90 41 90 90z" />
    <glyph glyph-name="Ograve" unicode="&#xd2;" horiz-adv-x="745" 
d="M285 927l44 44l130 -130l-43 -44zM456 729c126 0 229 -102 229 -229v-273c0 -126 -103 -229 -229 -229h-167c-127 0 -229 103 -229 229v273c0 127 102 229 229 229h167zM496 282v166c0 50 -41 90 -91 90h-66c-50 0 -90 -40 -90 -90v-166c0 -50 40 -90 90 -90h66
c50 0 91 40 91 90z" />
    <glyph glyph-name="ograve" unicode="&#xf2;" 
d="M468 752c130 0 235 -106 235 -236v-281c0 -130 -105 -236 -235 -236h-172c-131 0 -236 106 -236 236v281c0 130 105 236 236 236h172zM509 292v170c0 51 -42 93 -93 93h-68c-52 0 -94 -42 -94 -93v-170c0 -52 42 -94 94 -94h68c51 0 93 42 93 94zM424 803l-129 129l43 44
l130 -132z" />
    <glyph glyph-name="Ocircumflex" unicode="&#xd4;" horiz-adv-x="742" 
d="M501 838l-44 -43l-86 86l-86 -86l-44 43l130 130zM454 727c126 0 228 -102 228 -228v-272c0 -126 -102 -228 -228 -228h-166c-126 0 -228 102 -228 228v272c0 126 102 228 228 228h166zM494 282v165c0 50 -40 90 -90 90h-66c-50 0 -90 -40 -90 -90v-165
c0 -50 40 -90 90 -90h66c50 0 90 40 90 90z" />
    <glyph glyph-name="ocircumflex" unicode="&#xf4;" 
d="M468 752c130 0 235 -106 235 -236v-281c0 -130 -105 -236 -235 -236h-172c-131 0 -236 106 -236 236v281c0 130 105 236 236 236h172zM509 292v170c0 51 -42 93 -93 93h-68c-52 0 -94 -42 -94 -93v-170c0 -52 42 -94 94 -94h68c51 0 93 42 93 94zM381 889l-86 -87l-44 44
l130 131l131 -131l-44 -44z" />
    <glyph glyph-name="Oacute" unicode="&#xd3;" horiz-adv-x="747" 
d="M417 975l44 -44l-131 -131l-44 44zM457 732c127 0 230 -103 230 -229v-275c0 -127 -103 -230 -230 -230h-167c-127 0 -230 103 -230 230v275c0 126 103 229 230 229h167zM498 283v166c0 51 -41 91 -91 91h-67c-50 0 -91 -40 -91 -91v-166c0 -50 41 -91 91 -91h67
c50 0 91 41 91 91z" />
    <glyph glyph-name="oacute" unicode="&#xf3;" 
d="M468 752c130 0 235 -106 235 -236v-281c0 -130 -105 -236 -235 -236h-172c-131 0 -236 106 -236 236v281c0 130 105 236 236 236h172zM509 292v170c0 51 -42 93 -93 93h-68c-52 0 -94 -42 -94 -93v-170c0 -52 42 -94 94 -94h68c51 0 93 42 93 94zM338 802l-44 43l131 131
l44 -44z" />
    <glyph glyph-name="Zcaron" unicode="&#x17d;" horiz-adv-x="648" 
d="M324 887l87 87l44 -44l-131 -131l-131 131l44 44zM286 192h302v-193h-528v192l268 350h-268v192h517v-193z" />
    <glyph glyph-name="zcaron" unicode="&#x17e;" horiz-adv-x="662" 
d="M292 195h310v-198h-542v197l275 359h-275v198h531v-199zM331 889l86 87l44 -44l-130 -131l-131 131l44 44z" />
    <glyph glyph-name="Yacute" unicode="&#xdd;" horiz-adv-x="811" 
d="M493 929l-131 -131l-44 44l131 131zM751 732l-249 -441v-293h-193v293l-249 441h211l135 -238l134 238h211z" />
    <glyph glyph-name="yacute" unicode="&#xfd;" horiz-adv-x="830" 
d="M554 751h216l-256 -453v-301h-198v301l-256 453h217l138 -245zM371 802l-44 43l131 131l44 -44z" />
    <glyph glyph-name="Ydieresis" unicode="&#x178;" horiz-adv-x="811" 
d="M300 795c-51 0 -91 41 -91 91s40 91 91 91c50 0 91 -41 91 -91s-41 -91 -91 -91zM512 795c-50 0 -91 41 -91 91s41 91 91 91s91 -41 91 -91s-41 -91 -91 -91zM751 733l-249 -441v-293h-193v293l-249 441h211l135 -238l134 238h211z" />
    <glyph glyph-name="ydieresis" unicode="&#xff;" horiz-adv-x="830" 
d="M554 751h216l-256 -453v-301h-198v301l-256 453h217l138 -245zM309 795c-50 0 -90 41 -90 90c0 50 40 91 90 91s91 -41 91 -91c0 -49 -41 -90 -91 -90zM520 795c-50 0 -90 41 -90 90c0 50 40 91 90 91s91 -41 91 -91c0 -49 -41 -90 -91 -90z" />
    <glyph glyph-name="yen" unicode="&#xa5;" horiz-adv-x="830" 
d="M554 751h216l-256 -453v-301h-198v301l-256 453h217l138 -245zM636 327h-443v148h443v-148zM636 117h-443v148h443v-148z" />
    <glyph glyph-name="sterling" unicode="&#xa3;" horiz-adv-x="662" 
d="M258 196h344v-199h-542v755h198v-556zM613 409h-563v148h563v-148z" />
    <glyph glyph-name="currency" unicode="&#xa4;" horiz-adv-x="704" 
d="M589 329c0 -49 -14 -94 -38 -131l93 -94l-105 -105l-105 106c-26 -9 -54 -14 -83 -14c-28 0 -56 5 -81 14l-105 -106l-105 105l93 94c-24 37 -38 82 -38 131c0 48 14 93 39 130l-94 94l105 105l105 -106c25 10 53 15 81 15c29 0 57 -5 83 -15l105 106l105 -105l-94 -94
c25 -37 39 -82 39 -130zM351 240c51 0 91 40 91 89s-40 90 -91 90c-49 0 -89 -41 -89 -90s40 -89 89 -89z" />
    <glyph glyph-name="brokenbar" unicode="&#xa6;" horiz-adv-x="189" 
d="M60 432v361h69v-361h-69zM60 -58v361h69v-361h-69z" />
    <glyph glyph-name="copyright" unicode="&#xa9;" horiz-adv-x="706" 
d="M397 430l66 1v-19c0 -45 -37 -81 -80 -81h-59c-45 0 -81 36 -81 81v95c0 44 36 80 81 80h59c43 0 80 -36 80 -80v-18h-66c0 16 -14 30 -32 30h-25c-16 0 -30 -14 -30 -30v-59c0 -17 14 -31 30 -31h25c18 0 32 14 32 31zM353 752c163 0 293 -130 293 -293
c0 -162 -130 -293 -293 -293c-162 0 -293 131 -293 293c0 163 131 293 293 293zM353 257c112 0 202 91 202 202c0 112 -90 202 -202 202c-111 0 -202 -90 -202 -202c0 -111 91 -202 202 -202z" />
    <glyph glyph-name="registered" unicode="&#xae;" horiz-adv-x="707" 
d="M353 752c163 0 294 -131 294 -294c0 -162 -131 -293 -294 -293c-162 0 -293 131 -293 293c0 163 131 294 293 294zM353 256c111 0 203 92 203 202c0 111 -92 203 -203 203c-110 0 -202 -92 -202 -203c0 -110 92 -202 202 -202zM380 358l-36 65h-21v-65h-53v201h102
c29 0 52 -25 52 -55v-28c0 -21 -10 -38 -27 -47l40 -71h-57zM323 513v-48h35c13 0 22 11 22 21v8c0 10 -9 19 -22 19h-35z" />
    <glyph glyph-name="Oslash" unicode="&#xd8;" 
d="M172 -112l309 929h94l-310 -929h-93zM468 752c130 0 235 -106 235 -236v-281c0 -130 -105 -236 -235 -236h-172c-131 0 -236 106 -236 236v281c0 130 105 236 236 236h172zM509 292v170c0 51 -42 93 -93 93h-68c-52 0 -94 -42 -94 -93v-170c0 -52 42 -94 94 -94h68
c51 0 93 42 93 94z" />
    <glyph glyph-name="oslash" unicode="&#xf8;" 
d="M172 -112l309 929h94l-310 -929h-93zM468 752c130 0 235 -106 235 -236v-281c0 -130 -105 -236 -235 -236h-172c-131 0 -236 106 -236 236v281c0 130 105 236 236 236h172zM509 292v170c0 51 -42 93 -93 93h-68c-52 0 -94 -42 -94 -93v-170c0 -52 42 -94 94 -94h68
c51 0 93 42 93 94z" />
    <glyph glyph-name="Eth" unicode="&#xd0;" horiz-adv-x="941" 
d="M646 752c130 0 235 -106 235 -236v-281c0 -130 -105 -235 -235 -235h-407v752h407zM687 292v170c0 51 -41 93 -93 93h-157v-356h157c52 0 93 41 93 93zM623 301h-563v148h563v-148z" />
    <glyph glyph-name="eth" unicode="&#xf0;" horiz-adv-x="941" 
d="M646 752c130 0 235 -106 235 -236v-281c0 -130 -105 -235 -235 -235h-407v752h407zM687 292v170c0 51 -41 93 -93 93h-157v-356h157c52 0 93 41 93 93zM623 301h-563v148h563v-148z" />
    <glyph glyph-name="B" unicode="B" horiz-adv-x="666" 
d="M600 530c0 -104 -25 -123 -47 -154c28 -32 53 -58 53 -153c0 -136 -90 -224 -221 -224h-325v753h354c113 -11 186 -87 186 -222zM358 158c38 0 68 24 68 68s-30 68 -67 68h-107v-136h106zM362 459c37 0 67 22 67 67s-30 68 -68 68h-109v-135h110z" />
    <glyph glyph-name="D" unicode="D" horiz-adv-x="762" 
d="M467 752c130 0 235 -106 235 -236v-281c0 -130 -105 -235 -235 -235h-407v752h407zM508 292v170c0 51 -41 93 -93 93h-157v-356h157c52 0 93 41 93 93z" />
    <glyph glyph-name="F" unicode="F" horiz-adv-x="662" 
d="M60 753h542v-198h-344v-91h266v-163h-266v-303h-198v755z" />
    <glyph glyph-name="breve" unicode="&#x2d8;" horiz-adv-x="833" 
 />
    <glyph glyph-name="space" unicode=" " horiz-adv-x="300" 
 />
    <glyph glyph-name="NULL" horiz-adv-x="0" 
 />
    <glyph glyph-name="NULL" horiz-adv-x="0" 
 />
    <glyph glyph-name="CR" unicode="&#xd;" horiz-adv-x="300" 
 />
    <glyph glyph-name="E" unicode="E" horiz-adv-x="662" 
d="M60 753h542v-198h-344v-91h266v-163h-266v-104h344v-199h-542v755z" />
    </font>
</defs>
</svg>
